<svg version="1" xmlns="http://www.w3.org/2000/svg" width="281.333" height="281.333" viewBox="0 0 211.000000 211.000000"><path d="M115.5 63.5c-10.5 3.4-23.7 12.3-31 21-2.2 2.6-4.5 5.3-5.2 6-.8.8-4 1.3-9 1.3-14.1 0-28.7 2.3-42.8 6.9-8.5 2.8-20.2 8-24.8 11.1L0 111.6l2.2 2c5.4 4.7 4.9 4.7 14.4-.6 13.6-7.6 30.8-13.9 45.3-16.6 1.3-.3 5.3-1.1 8.7-1.8 3.5-.8 6.4-1.2 6.4-.9 0 .2-.7 1.9-1.5 3.8-4.2 10.3-2.1 18.1 6.5 23.8 3.8 2.4 7.5 2.7 13.2 1 6.6-1.9 10.7-4.7 19.1-13 7.1-7.1 7.2-7 2.7 3.2-4.5 10.4-4.6 9.6.8 9.1 2.6-.2 5-.5 5.3-.5.4-.1 3-3.3 6-7.1 5-6.6 7.9-9.1 6.2-5.3-.8 1.7-.8 2.9-.4 7.5.2 3.1 4.5 5.1 9.2 4.3 3.2-.6 5.4-1.9 8.8-5.4l4.6-4.6-.3 4.7c-.4 4.7 1.1 6.8 4.6 6.2.6-.1 1.8-.2 2.5-.3.7 0 3.2-1.7 5.5-3.7 2.3-1.9 4.2-3.3 4.2-3.1 0 .3-2.4 6.7-5.4 14.4-2.9 7.6-5.6 15-6 16.5-.6 2.7-.5 2.8 3.6 2.8 4.3 0 4.3 0 6.2-5.3 5.4-15.6 14.3-35.4 17.9-39.9.8-1 3-2.4 4.9-3.2 3.1-1.3 3.8-1.3 5.6 0 2.5 1.7 2.8 4.1 1 7.8-1.5 3.4-4.3 4.2-7.4 2.1-1.4-.9-2.8-1.5-3-1.2-.3.3-1.4 2.8-2.5 5.6-2.1 5.6-1.9 5.9 3.7 6.5 8.8.8 17.5-9.3 17.7-20.3.1-6.8-2.4-10.1-7.5-10.1-2.1 0-5.6.9-7.8 2-2.8 1.4-3.8 1.6-3.4.6.4-.9-.5-1.5-2.8-1.8-3.6-.6-5.8-.1-5.8 1.3 0 .5-1.5 3.2-3.4 6.1-6.2 9.7-13 15.6-14.2 12.3-.7-1.8 1.7-8.9 5.2-15.3 1.3-2.3 2.4-4.4 2.4-4.6 0-.2-2.1-.4-4.7-.4-4.7 0-4.8 0-8.6 5.8-2.1 3.2-6.1 8-8.8 10.5-4.1 3.8-5.3 4.4-6.4 3.5-1.8-1.5-1.2-4.2 2.6-12.8l2.8-6.2h-3.7c-2.9 0-4.6.8-7.7 3.7-2.2 2.1-5.3 4.9-6.9 6.3l-2.9 2.5 1.6-3c7.2-14.3 15.9-35.4 15.3-37.1-.3-.7-2.1-1.2-4.1-1.2-3.3 0-3.8.4-5.2 3.6-9.7 23.9-18.6 36-32.1 43.9-12 7-18.6-2-11.7-15.9 4.2-8.4 14.2-17.7 21.3-19.7 6.1-1.8 5.5 3.1-1.3 10.7-5 5.5-4.7 6 3.1 5.4 3.8-.4 4.4-.8 6.7-5 4.9-9.3 6.4-17.1 3.9-20.1-2.2-2.8-5.7-3.3-10.7-1.6z"/><path d="M167.1 74.6c-2.6 1.9-2.8 7.1-.3 9 4 3 9.2.3 9.2-4.8 0-4.5-5.1-6.8-8.9-4.2zM148.3 133.1c-9.6 2-23.8 6.8-33.3 11.3-6.4 3-6 3.2 2.4 1 3.3-.9 7-1.8 8.1-2 1.1-.2 4.3-.8 7-1.3 7.8-1.6 11.4-2 20.5-2.7 4.7-.4 8.6-.7 8.7-.8.1-.1.9-1.9 1.8-3.9l1.5-3.7-3.7.1c-2.1 0-8 .9-13 2zM179.2 134c-2 4.4-1.1 5.6 5 6.4 2.9.4 5.3.7 5.3.7 0-.1 2.9.7 6.5 1.7l6.4 1.9 2.8-4.1c1.5-2.2 2.6-4.2 2.4-4.3-.8-.8-16.5-4.3-21.4-4.9-5.6-.5-5.7-.5-7 2.6z"/></svg>